<?xml version="1.0" encoding="utf-8"?>
<!-- Generator: Adobe Illustrator 19.0.0, SVG Export Plug-In . SVG Version: 6.00 Build 0)  -->
<svg version="1.1" id="Layer_1" xmlns="http://www.w3.org/2000/svg" xmlns:xlink="http://www.w3.org/1999/xlink" x="0px" y="0px"
	 viewBox="0 0 1024 1024" style="enable-background:new 0 0 1024 1024;" xml:space="preserve">
<g id="XMLID_1_">
	<path id="XMLID_2_" d="M851.7,145.6H172.3c-4.5,0-8.1,3.6-8.1,8.1v60c0,4.5,3.6,8.1,8.1,8.1h679.3c4.5,0,8.1-3.6,8.1-8.1v-60
		C859.8,149.2,856.1,145.6,851.7,145.6z"/>
	<path id="XMLID_3_" d="M548.8,88.3h-73.5c-5.5,0-10,4.5-10,10v34.1h93.5V98.3C558.8,92.8,554.3,88.3,548.8,88.3z"/>
	<path id="XMLID_11_" d="M200.4,242L244,909.6c1,14.9,13.3,26.4,28.3,26.4h479.4c14.9,0,27.3-11.5,28.3-26.4L823.6,242H200.4z
		 M377,877.6l-16.3,0.9c-13.2,0.7-24.4-9.4-25.1-22.6l-28.3-540.6c-0.7-13.2,9.4-24.4,22.6-25.1l16.3-0.9
		c13.2-0.7,24.4,9.4,25.1,22.6l28.3,540.6C400.3,865.6,390.2,876.9,377,877.6z M545,854.1c0,13.2-10.7,23.9-23.9,23.9h-17.2
		c-13.2,0-23.9-10.7-23.9-23.9V312.9c0-13.2,10.7-23.9,23.9-23.9h17.2c13.2,0,23.9,10.7,23.9,23.9V854.1z M716.8,315.2l-28.3,540.6
		c-0.7,13.2-11.9,23.3-25.1,22.6l-16.3-0.9c-13.2-0.7-23.3-11.9-22.6-25.1l28.3-540.6c0.7-13.2,11.9-23.3,25.1-22.6l16.3,0.9
		C707.4,290.8,717.5,302,716.8,315.2z"/>
</g>
</svg>
