<?xml version="1.0" encoding="utf-8"?>
<!-- Generator: Adobe Illustrator 19.0.0, SVG Export Plug-In . SVG Version: 6.00 Build 0)  -->
<svg version="1.1" id="Layer_1" xmlns="http://www.w3.org/2000/svg" xmlns:xlink="http://www.w3.org/1999/xlink" x="0px" y="0px"
	 viewBox="0 0 1024 1024" style="enable-background:new 0 0 1024 1024;" xml:space="preserve">
<style type="text/css">
	.st0{fill:#BCBCBC;stroke:#BCBCBC;stroke-miterlimit:10;}
</style>
<g id="XMLID_1_">
	<path id="XMLID_4_" class="st0" d="M451.9,201c-70.6-84.2-197.2-95.2-281.4-24.6l0,0C86.4,247,75.3,373.6,145.9,457.8l105.2,125.4
		l260.7-310.7L451.9,201z"/>
	<path id="XMLID_6_" class="st0" d="M877.8,457.8c70.6-84.2,59.5-210.8-24.6-281.4l0,0C769,105.8,642.4,116.9,571.8,201l-59.9,71.4
		l260.7,310.7L877.8,457.8z"/>
	<path id="XMLID_8_" class="st0" d="M511.8,272.4L251.1,583.1l225.7,269c18.3,21.8,51.8,21.8,70,0l225.7-269L511.8,272.4z"/>
</g>
</svg>
