<?xml version="1.0" encoding="utf-8"?>
<!-- Generator: Adobe Illustrator 19.0.0, SVG Export Plug-In . SVG Version: 6.00 Build 0)  -->
<svg version="1.1" id="Layer_1" xmlns="http://www.w3.org/2000/svg" xmlns:xlink="http://www.w3.org/1999/xlink" x="0px" y="0px"
	 viewBox="488 263 2000 500" style="enable-background:new 488 263 2000 500;" xml:space="preserve">
<style type="text/css">
	.st0{fill:#FFFFFF;stroke:#FFFFFF;stroke-miterlimit:10;}
	.st1{fill:none;stroke:#FFFFFF;stroke-miterlimit:10;}
	.st2{fill:none;stroke:#FFFFFF;stroke-width:24;stroke-miterlimit:10;}
</style>
<g id="XMLID_2_">
	<path id="XMLID_3_" class="st0" d="M673.9,675.5c-17.7,0-33.7-3.1-47.9-9.5c-14.3-6.3-26.1-14.6-35.6-25s-17.3-22.7-23.6-36.9
		c-6.3-14.2-10.8-29-13.5-44.1c-2.7-15.2-4.1-30.8-4.1-47c0-19.8,2.3-38.9,7-57.4c4.6-18.5,11.8-35.7,21.4-51.8
		c9.6-16,22.7-29,39.2-38.7s35.6-14.6,57.2-14.6c24.6,0,45.2,6.3,61.7,18.9c16.5,12.6,28.5,28.2,36,46.8l-47.7,23
		c-6.6-12.6-13.7-22.1-21.4-28.4c-7.7-6.3-17.2-9.5-28.6-9.5c-16.2,0-29.7,6-40.5,18c-10.8,12-18.3,26-22.5,42.1
		c-4.2,16.1-6.3,33.2-6.3,51.5c0,29.7,6,55.7,18,78.1c12,22.4,29.1,33.5,51.3,33.5c21,0,37.8-13.5,50.4-40.5l48.6,18.5
		C753.2,651.2,720.2,675.5,673.9,675.5z"/>
	<path id="XMLID_5_" class="st0" d="M945.8,675.9c-27,0-49.7-7.9-68.2-23.6c-18.5-15.8-31.6-35.5-39.4-59.2
		c-7.8-23.7-11.7-50.4-11.7-80.1c0-29.7,3.9-56.4,11.7-80.1c7.8-23.7,20.9-43.4,39.4-59.2c18.5-15.8,41.2-23.6,68.2-23.6
		c16.5,0,31.5,2.9,45,8.8c13.5,5.9,24.8,13.9,34,24.1c9.2,10.2,16.8,22.3,23,36.2c6.1,14,10.6,28.7,13.5,44.3
		c2.8,15.6,4.3,32.1,4.3,49.5c0,17.4-1.4,33.9-4.3,49.5c-2.9,15.6-7.4,30.4-13.5,44.3c-6.2,14-13.8,26-23,36.2
		c-9.2,10.2-20.5,18.2-34,24.1S962.3,675.9,945.8,675.9z M945.8,625.1c14.1,0,26.1-5.5,36-16.7c9.9-11.1,17-24.8,21.4-41.2
		c4.3-16.4,6.5-34.4,6.5-54.2c0-32.4-5.3-59.2-16-80.3C983,411.5,967.1,401,945.8,401c-21,0-36.9,10.9-47.7,32.6
		c-10.8,21.8-16.2,48.2-16.2,79.4c0,32.1,5.3,58.8,16,80.1C908.5,614.4,924.5,625.1,945.8,625.1z"/>
	<path id="XMLID_8_" class="st0" d="M1330.7,450.9c0,20.4-5.5,38.9-16.4,55.4c-11,16.5-26.8,28.2-47.5,35.1l63.5,129.2h-59.4
		l-61.2-123.3h-37.4v123.3h-53.6V355.5h108.9c18.6,0,34.8,2.6,48.6,7.9c13.8,5.3,24.5,12.5,32.2,21.6c7.7,9.2,13.3,19.2,16.9,30.2
		C1328.9,426.1,1330.7,438,1330.7,450.9z M1172.2,405.9v90.9h56.3c16.8,0,28.9-4.3,36.2-12.8c7.3-8.6,11-19.4,11-32.6
		c0-12.6-3.6-23.3-10.8-32.2c-7.2-8.8-19.4-13.3-36.5-13.3H1172.2z"/>
	<path id="XMLID_11_" class="st0" d="M1395.9,670.5v-315h79.2c20.4,0,38.9,3,55.4,9s30.2,14,41.2,23.9s20.1,21.7,27.5,35.3
		c7.3,13.7,12.7,27.9,16,42.8c3.3,14.9,5,30.4,5,46.6c0,15-1.5,29.7-4.5,44.1s-8.1,28.6-15.3,42.5c-7.2,14-16.3,26.1-27.2,36.5
		c-11,10.4-25,18.7-42.1,25s-36.3,9.5-57.6,9.5h-77.6V670.5z M1449.5,620.1h29.3c15.3,0,28.7-3.2,40.3-9.5
		c11.5-6.3,20.5-14.8,26.8-25.4s11-22.1,14-34.2c3-12.2,4.5-24.8,4.5-38c0-29.4-6.8-54.6-20.3-75.6s-33.6-31.5-60.3-31.5h-34.2
		L1449.5,620.1L1449.5,620.1z"/>
	<path id="XMLID_14_" class="st0" d="M1870.4,402.7h-66.2v220.6h66.2v47.3h-185.5v-47.3h65.7V402.7h-65.7v-47.2h185.5V402.7z"/>
	<path id="XMLID_16_" class="st0" d="M2125.6,670.5l-20.7-69.3H2005l-20.7,69.3h-57.6l103.1-315.1h50.4l103.1,315.1H2125.6z
		 M2019.4,552.6h71.1l-27.9-93.6c-3-9.6-5.6-21.3-7.7-35.1c-3.6,18.3-6.2,30-7.7,35.1L2019.4,552.6z"/>
	<path id="XMLID_19_" class="st0" d="M2227.8,670.5v-315h53.6v263.8h145.4v51.3L2227.8,670.5L2227.8,670.5z"/>
</g>
<g id="XMLID_1_">
	<path id="XMLID_29_" class="st1" d="M873,530.5c29.5,0,29.5,44,59,44s29.5-44,59-44s29.5,44,59,44"/>
	<path id="XMLID_28_" class="st2" d="M873,530.5c29.5,0,29.5,44,59,44s29.5-44,59-44s29.5,44,59,44"/>
</g>
<g id="XMLID_21_">
	<path id="XMLID_27_" class="st1" d="M1406,531.5c29.5,0,29.5,44,59,44s29.5-44,59-44s29.5,44,59,44"/>
	<path id="XMLID_26_" class="st2" d="M1406,531.5c29.5,0,29.5,44,59,44s29.5-44,59-44s29.5,44,59,44"/>
</g>
<path id="XMLID_23_" class="st0" d="M869.3,532.3c0,0,30.3,21.2,31,21.2s23.7,21.2,23.7,21.2s26.7-7.7,27-8.7s24.7-26,24.7-26l31-4
	l18,38.7c0,0-20,38.3-21,39.3s-49,22-50,22s-57.3-9.3-57.3-9.3S876,588,876,587S869.3,532.3,869.3,532.3z"/>
<path id="XMLID_24_" class="st0" d="M1438,557.7c0,0,19.7,17.3,21.3,17.3c1.7,0,42.7-30.7,42.7-30.7l40-7l22.3,50.7l-81.3,59.7
	l-55.3-30.7L1438,557.7z"/>
</svg>
