<?xml version="1.0" encoding="utf-8"?>
<!-- Generator: Adobe Illustrator 19.0.0, SVG Export Plug-In . SVG Version: 6.00 Build 0)  -->
<svg version="1.1" xmlns="http://www.w3.org/2000/svg" xmlns:xlink="http://www.w3.org/1999/xlink" x="0px" y="0px"
	 viewBox="0 0 1024 1024" style="enable-background:new 0 0 1024 1024;" xml:space="preserve">
<style type="text/css">
	.st0{stroke:#000000;stroke-miterlimit:10;}
</style>
<g id="Layer_1">
	<path id="XMLID_5_" d="M663,491.4c0-78.9-63.6-142.4-142.5-142.4h0.1C441.7,349,376,412.5,376,491.4V758h287V491.4z"/>
	<rect id="XMLID_2_" x="376.5" y="757.7" width="61.8" height="203.8"/>
	<rect id="XMLID_3_" x="601.1" y="757.6" width="61.8" height="203.8"/>
	<g id="XMLID_7_">
		<g id="XMLID_4_">
			<path id="XMLID_10_" d="M624.1,496.7c-18.5,0-37.3-2-56.2-6.1l12-55.1c69.8,15.2,138.5-6.1,175-54.4c24.1-31.8,29-67.8,28.8-92.4
				l56.4-0.4c0.2,33.3-6.6,82.4-40.3,126.8C760.5,467.2,695,496.7,624.1,496.7z"/>
		</g>
		<g id="XMLID_6_">
			<path id="XMLID_9_" d="M400.1,496.7c-70.9,0-136.4-29.4-175.9-81.5c-33.7-44.5-40.5-93.5-40.3-126.8l56.4,0.4
				c-0.2,24.6,4.7,60.5,28.8,92.4c36.6,48.3,105.3,69.6,175,54.4l12,55.1C437.5,494.7,418.6,496.7,400.1,496.7z"/>
		</g>
	</g>
</g>
<g id="Layer_2">
	<path id="XMLID_18_" class="st0" d="M519.8,92.3c-75.9,0-137.5,61.5-137.5,137.5s61.5,137.5,137.5,137.5s137.5-61.5,137.5-137.5
		S595.8,92.3,519.8,92.3z M572.9,156.7c10.6,0,19.3,8.6,19.3,19.3c0,10.6-8.6,19.3-19.3,19.3c-10.6,0-19.3-8.6-19.3-19.3
		C553.6,165.3,562.3,156.7,572.9,156.7z M464.9,156.7c10.6,0,19.3,8.6,19.3,19.3c0,10.6-8.6,19.3-19.3,19.3
		c-10.6,0-19.3-8.6-19.3-19.3C445.6,165.3,454.3,156.7,464.9,156.7z M575,316.5c-0.3-30-25.5-56.2-56.4-56.2
		c-30.9,0-56.1,26.2-56.4,56.2h-23.3c0.3-44,35.9-79.4,79.7-79.4c43.7,0,79.3,35.4,79.7,79.4H575z"/>
</g>
</svg>
