<?xml version="1.0" encoding="utf-8"?>
<!-- Generator: Adobe Illustrator 19.0.0, SVG Export Plug-In . SVG Version: 6.00 Build 0)  -->
<svg version="1.1" id="Layer_1" xmlns="http://www.w3.org/2000/svg" xmlns:xlink="http://www.w3.org/1999/xlink" x="0px" y="0px"
	 viewBox="0 0 1024 1024" style="enable-background:new 0 0 1024 1024;" xml:space="preserve">
<style type="text/css">
	.st0{fill:none;stroke:#000000;stroke-width:101;stroke-miterlimit:10;}
</style>
<path id="XMLID_1_" class="st0" d="M835.6,787.5h-80.9h-80.9h-80.9H512h-8.8c-11.1,0-21.7,5-29.8,14.1L369.3,918.1
	c-2.7,3-6.9,3.1-9.7,0.1L250.5,800.9c-8-8.6-18.4-13.4-29.2-13.4h-32.9c-6.1,0-12.1-0.8-17.9-2.2c-5.8-1.4-11.4-3.5-16.7-6.3
	c-5.3-2.7-10.4-6-15.2-9.9c-4.7-3.9-9.2-8.2-13.2-13.1c-4-4.9-7.7-10.2-10.9-15.9s-6-11.8-8.3-18.2s-4-13.1-5.2-20.1
	c-1.2-7-1.8-14.1-1.8-21.5v-58.7V563v-58.7v-58.7v-58.7v-58.7v-58.7v-58.7c0-7.4,0.6-14.6,1.8-21.5c1.2-7,3-13.7,5.2-20.1
	c2.3-6.4,5-12.5,8.3-18.2s6.9-11,10.9-15.9c4-4.9,8.5-9.2,13.2-13.1c4.7-3.9,9.8-7.2,15.2-9.9s10.9-4.8,16.7-6.3
	c5.8-1.4,11.8-2.2,17.9-2.2h80.9h80.9h80.9H512h80.9h80.9h80.9h80.9c6.1,0,12.1,0.8,17.9,2.2s11.4,3.5,16.7,6.3
	c5.3,2.7,10.4,6,15.2,9.9s9.2,8.2,13.2,13.1c4,4.9,7.7,10.2,10.9,15.9c3.2,5.7,6,11.8,8.3,18.2c2.3,6.4,4,13.1,5.2,20.1
	c1.2,7,1.8,14.1,1.8,21.5v58.7v58.7v58.7v58.7v58.7V563v58.7v58.7c0,7.4-0.6,14.6-1.8,21.5c-1.2,7-3,13.7-5.2,20.1
	c-2.3,6.4-5,12.5-8.3,18.2c-3.2,5.7-6.9,11-10.9,15.9c-4,4.9-8.5,9.2-13.2,13.1c-4.7,3.9-9.8,7.2-15.2,9.9
	c-5.3,2.7-10.9,4.8-16.7,6.3S841.7,787.5,835.6,787.5z"/>
<rect id="XMLID_2_" x="209.8" y="211.6" width="470.1" height="86.6"/>
<rect id="XMLID_3_" x="209.8" y="336.6" width="241.2" height="86.6"/>
</svg>
